<svg width="256" height="256" viewBox="0 0 256 256" fill="none" xmlns="http://www.w3.org/2000/svg" class="logo">
    <style>
    :root {
        --color-light: hsl(220, 80%, 90%);
        --color-dark: hsl(220, 80%, 10%);
        --color-primary: hsl(220, 80%, 50%);
        --color-secondary: hsl(220, 80%, 30%);
        --color-tertiary: hsl(220, 80%, 70%);
        --color-background: hsl(220, 30%, 10%);
        --color-header: hsl(220, 50%, 30%);
        --color-header-hover: hsl(220, 50%, 20%);
        --color-error: hsl(0, 80%, 70%);
    }
    </style>
    <path d="M101.479 95.3489C101.12 95.3489 100.766 95.2552 100.448 95.0781L90.599 89.3906C90.3282 89.2344 90.0886 89.0364 89.9115 88.7812C89.3802 88.0208 89.4323 87.0573 89.9479 86.3698C93.3282 81.8646 97.5 78.1666 102.344 75.3698L106.693 72.8594C107.151 72.5989 107.672 72.4583 108.198 72.4583C108.729 72.4583 109.245 72.5989 109.703 72.8594L121.729 79.9896C122.495 80.4427 122.484 81.5521 121.714 82L110.047 88.6979C107.365 90.2448 105 92.2448 103.016 94.6406C102.646 95.0885 102.083 95.3489 101.479 95.3489Z" fill="var(--color-light)" />
    <path d="M96.6458 126.667C96.5885 126.667 96.526 126.651 96.4739 126.62L83.1041 118.906C82.1771 118.375 81.5989 117.375 81.5989 116.307V111.286C81.5989 105.698 82.7239 100.234 84.9323 95.0573C85.2552 94.2969 86 93.8073 86.8229 93.8073C87.1771 93.8073 87.526 93.901 87.8385 94.0833L97.7291 99.7917C98.5937 100.292 98.9739 101.318 98.6354 102.229C97.5521 105.146 97.0052 108.193 97.0052 111.286V126.318C97 126.557 96.7864 126.667 96.6458 126.667Z" fill="var(--color-tertiary)" />
    <path d="M105.026 131.078C104.484 131.078 103.953 130.937 103.484 130.667C102.995 130.385 102.693 129.859 102.693 129.297V112.641C102.693 108.667 103.75 104.74 105.75 101.276C107.75 97.8125 110.625 94.9323 114.073 92.9427L127.958 84.9375C128.458 84.6146 129.417 84.4375 130.141 84.7031C131.078 85.0521 131.625 86.1875 131.625 87.2812V101.448C131.625 102.562 131.026 103.604 130.057 104.161C129.927 104.234 126.719 106.057 125.312 106.896C124.693 107.266 122.589 108.62 121.516 110.458C120.766 111.75 120.401 113.448 120.401 115.641V120.865C120.401 121.984 119.802 123.021 118.833 123.583L106.557 130.661C106.094 130.937 105.562 131.078 105.026 131.078Z" fill="var(--color-primary)" />
    <path d="M202.448 95.2448C201.839 95.2448 201.26 94.974 200.87 94.5052C198.891 92.1198 196.531 90.1354 193.865 88.5938L182.13 81.8229C181.156 81.2604 180.484 80.25 180.333 79.125C179.661 74.0781 178.833 70.4427 177.656 67.3385C177.359 66.0052 177.823 65.1302 179.083 64.6563C179.521 64.4896 180.026 64.4062 180.578 64.4062C182 64.4062 183.719 64.9687 185.552 66.026L201.563 75.2656C206.411 78.0625 210.583 81.7604 213.964 86.2604C214.318 86.7292 214.453 87.3281 214.333 87.9063C214.214 88.4844 213.865 88.9687 213.354 89.2656L203.458 94.974C203.156 95.151 202.802 95.2448 202.448 95.2448Z" fill="var(--color-light)" />
    <path d="M156.401 202.87C155.271 202.87 154.354 201.953 154.354 200.828V189.411C154.354 188.417 155.068 187.568 156.057 187.401C159.182 186.875 161.922 185.885 164.682 184.297L193.865 167.453C197.818 165.177 201.115 161.875 203.406 157.901C205.703 153.932 206.911 149.422 206.911 144.865V111.182C206.911 108.104 206.37 105.073 205.292 102.167C204.948 101.229 205.318 100.182 206.182 99.6875L216.078 93.9792C216.391 93.7969 216.734 93.7031 217.094 93.7031C217.917 93.7031 218.661 94.1927 218.984 94.9531C221.193 100.13 222.312 105.594 222.312 111.182V144.865C222.312 152.109 220.385 159.281 216.74 165.594C213.094 171.911 207.849 177.161 201.568 180.781L172.38 197.625C167.536 200.422 162.24 202.182 156.651 202.854C156.568 202.865 156.484 202.87 156.401 202.87Z" fill="var(--color-primary)" />
    <path d="M198.307 151.495C197.948 151.495 197.594 151.401 197.281 151.219L184.552 143.875C180.979 141.812 181.036 137.896 181.057 136.604L181.063 136.38C181.068 132.615 181.005 119.187 180.953 107.339C180.911 98.3958 180.875 90.6719 180.875 88.5937C180.875 88.401 180.964 88.276 181.036 88.2083C181.141 88.1094 181.276 88.0521 181.417 88.0521C181.51 88.0521 181.599 88.0781 181.682 88.1302L189.849 92.8385C196.865 96.8906 201.224 104.437 201.224 112.536V143.505C201.224 145.729 200.896 147.943 200.245 150.083C199.984 150.932 199.203 151.495 198.307 151.495Z" fill="var(--color-tertiary)" />
    <path d="M146.021 202.823C145.938 202.823 145.854 202.818 145.766 202.807C140.172 202.135 134.885 200.37 130.036 197.573L113.188 187.849C110.542 186.328 108.786 184.693 108.24 183.255C107.984 182.573 108.01 181.766 108.307 181.245C108.469 180.969 108.688 180.813 108.969 180.766C112.104 180.24 114.172 179.844 120.141 177.802C121.141 177.458 122.167 177.286 123.182 177.286C125.286 177.286 126.969 178.016 128.01 178.63L137.74 184.245C140.406 185.781 143.307 186.828 146.359 187.349C147.349 187.521 148.068 188.365 148.068 189.359V200.776C148.068 201.323 147.849 201.839 147.464 202.224C147.073 202.609 146.563 202.823 146.021 202.823Z" fill="var(--color-tertiary)" />
    <path d="M151.75 181.323C147.547 181.323 143.615 180.286 140.953 178.479C138.943 177.115 136.802 175.224 136.802 170.031L136.536 158.042C136.536 156.74 137.719 156.698 137.854 156.698C138.083 156.698 138.302 156.75 138.484 156.844L148.266 162.49C149.365 163.125 150.547 163.448 151.781 163.448C153.099 163.448 154.422 163.073 155.719 162.344C159.667 160.109 165.552 156.687 171.24 153.391C173.74 151.937 176.177 150.521 178.365 149.255C179.167 148.797 180.083 148.547 181.005 148.547C181.932 148.547 182.844 148.792 183.641 149.255L194.792 155.688C195.339 156 195.703 156.542 195.797 157.167C195.885 157.776 195.703 158.375 195.286 158.823C193.76 160.453 192.005 161.849 190.078 162.958L163.24 178.443C160.021 180.302 155.938 181.323 151.75 181.323Z" fill="var(--color-light)" />
    <path d="M101.453 160.875C101.635 161.187 101.729 161.542 101.729 161.906V173.271C101.729 173.578 101.677 173.891 101.542 174.172C101.146 175.01 100.286 175.448 99.4323 175.344C93.8437 174.672 88.5469 172.911 83.7031 170.115L79.3541 167.604C78.8958 167.339 78.5156 166.964 78.25 166.505C77.9896 166.047 77.8489 165.526 77.8489 165L78.0104 151.026C78.0208 150.135 78.9896 149.589 79.7604 150.036L91.401 156.781C94.0833 158.333 96.9948 159.375 100.062 159.896C100.646 160 101.156 160.354 101.453 160.875Z" fill="var(--color-tertiary)" />
    <path d="M131.005 149.401C131.036 149.453 131.052 149.516 131.052 149.578V165.005C131.052 166.073 130.474 167.068 129.547 167.609L125.198 170.12C120.354 172.917 115.057 174.677 109.469 175.349C108.651 175.448 107.854 175.052 107.443 174.339C107.26 174.026 107.172 173.687 107.172 173.323V161.906C107.172 160.906 107.87 160.068 108.833 159.906C111.901 159.385 114.818 158.339 117.5 156.792L130.521 149.276C130.734 149.151 130.938 149.276 131.005 149.401Z" fill="var(--color-primary)" />
    <path d="M130.641 139.943C130.911 140.411 131.057 140.943 131.057 141.479C131.057 142.047 130.755 142.573 130.266 142.854L115.833 151.177C112.391 153.161 108.453 154.214 104.453 154.214C100.453 154.214 96.5156 153.161 93.0729 151.177L79.1927 143.167C78.6563 142.891 78.0261 142.146 77.8958 141.385C77.7292 140.401 78.4375 139.359 79.3906 138.812L91.6667 131.729C92.6354 131.172 93.8386 131.172 94.8021 131.729C94.9323 131.807 98.1146 133.667 99.5469 134.464C100.177 134.818 102.401 135.964 104.531 135.969C106.026 135.974 107.677 135.437 109.583 134.339L114.109 131.724C115.078 131.167 116.281 131.167 117.25 131.724L129.521 138.807C129.984 139.089 130.37 139.479 130.641 139.943Z" fill="var(--color-light)" />
    <path d="M50.875 73.5364C51.1823 74.0677 51.2344 74.6979 51.0208 75.276C49.9479 78.1771 49.401 81.2083 49.401 84.2917V97.8333C49.401 98.9583 48.8646 100.042 47.9635 100.74C43.9271 103.839 41.1875 106.375 39.0885 108.948C38.0833 109.87 37.0885 109.906 36.0521 109.052C35.6875 108.755 35.3646 108.359 35.0885 107.885C34.375 106.656 34 104.885 34 102.771V84.2917C34 78.6979 35.125 73.2344 37.3333 68.0573C37.5625 67.5156 38.0156 67.1042 38.5729 66.9167C39.1354 66.7292 39.724 66.7917 40.2396 67.0833L50.1354 72.7917C50.4427 72.9739 50.6979 73.2292 50.875 73.5364Z" fill="var(--color-tertiary)" />
    <path d="M167.161 59.5833C167.724 60.5625 167.391 61.8125 166.411 62.375L156.521 68.0833C155.656 68.5833 154.562 68.3854 153.927 67.6094C151.906 65.1719 149.682 63.2917 146.922 61.7031L117.74 44.8646C113.786 42.5833 109.276 41.375 104.687 41.375C100.099 41.375 95.5885 42.5833 91.6406 44.8646L62.4531 61.7031C59.7864 63.2448 57.4323 65.2292 55.4531 67.6094C54.8073 68.3802 53.7187 68.5781 52.8542 68.0833L42.9687 62.375C42.651 62.1979 42.401 61.9479 42.2187 61.6354C41.8073 60.9219 41.8646 60.0313 42.3594 59.375C45.7396 54.8698 49.9114 51.1719 54.7552 48.375L83.9427 31.5365C90.2239 27.9115 97.3958 26 104.693 26C111.984 26 119.161 27.9167 125.437 31.5365L154.625 48.375C159.469 51.1719 163.641 54.8698 167.021 59.375C167.073 59.4427 167.12 59.5104 167.161 59.5833Z" fill="var(--color-light)" />
    <path d="M101.693 49C101.87 49.3073 101.969 49.6614 101.969 50.026V64.7135C101.969 68.8385 98.5417 70.7448 97.4167 71.3698L97.224 71.4844C93.9583 73.3594 82.349 80.1302 72.1094 86.0989C64.3802 90.6094 57.7031 94.5 55.901 95.5364C55.7344 95.6302 55.5885 95.6198 55.4896 95.5885C55.3542 95.5521 55.2344 95.4583 55.1615 95.3385C55.1198 95.2604 55.0938 95.1719 55.0938 95.0677V85.6458C55.0938 77.5469 59.4531 69.9948 66.474 65.9479L93.3021 50.4635C95.2292 49.3489 97.3177 48.5312 99.4948 48.026C100.365 47.8281 101.245 48.2187 101.693 49Z" fill="var(--color-primary)" />
    <path d="M172.313 68.5885C172.354 68.6614 172.391 68.7344 172.427 68.8177C174.635 73.9948 175.755 79.4531 175.755 85.0469V104.495C175.755 107.547 175.224 109.88 174.245 111.073C173.786 111.635 173.073 112.016 172.474 112.016C172.156 112.016 171.911 111.911 171.724 111.687C169.698 109.234 168.323 107.646 163.578 103.5C162.776 102.802 162.115 102.005 161.609 101.125C160.557 99.3021 160.349 97.4791 160.359 96.276V85.0469C160.359 81.9687 159.813 78.9323 158.74 76.0312C158.391 75.0885 158.766 74.0469 159.63 73.5469L169.521 67.8385C170 67.5677 170.552 67.4948 171.078 67.6406C171.599 67.7864 172.042 68.1198 172.313 68.5885Z" fill="var(--color-primary)" />
    <path d="M150.823 74.3802C152.922 78.0208 153.99 81.9427 153.75 85.1458C153.573 87.5677 153 90.3698 148.505 92.9635L138.25 99.1875C137.115 99.8385 136.495 98.8333 136.427 98.7187C136.313 98.5208 136.245 98.3073 136.24 98.1042V86.8125C136.24 85.5469 135.927 84.3594 135.307 83.2917C134.651 82.1562 133.661 81.1979 132.38 80.4375C128.469 78.1354 122.568 74.7552 116.859 71.4792C114.359 70.0417 111.906 68.6406 109.719 67.3802C108.917 66.9167 108.25 66.25 107.786 65.4479C107.323 64.651 107.078 63.7396 107.078 62.8125V49.9531C107.078 49.3177 107.365 48.7344 107.859 48.3385C108.339 47.9531 108.958 47.8177 109.547 47.9531C111.724 48.4583 113.807 49.276 115.74 50.3906L142.573 65.875C145.797 67.7344 148.724 70.7552 150.823 74.3802Z" fill="var(--color-tertiary)" />
    <path d="M158.406 127.594C158.589 127.281 158.849 127.021 159.161 126.839L169.01 121.156C169.281 121 169.578 120.896 169.885 120.865C170.813 120.792 171.62 121.312 171.964 122.104C174.172 127.281 175.292 132.745 175.292 138.333V143.354C175.292 143.885 175.151 144.401 174.891 144.859C174.625 145.318 174.245 145.698 173.786 145.958L161.599 152.802C160.823 153.24 159.865 152.677 159.865 151.786L159.896 138.333C159.896 135.245 159.344 132.193 158.26 129.276C158.052 128.729 158.109 128.115 158.406 127.594Z" fill="var(--color-primary)" />
    <path d="M133.687 107.75C133.719 107.698 133.76 107.656 133.818 107.625L147.182 99.9114C148.109 99.375 149.266 99.375 150.187 99.9114L154.536 102.422C159.385 105.219 163.557 108.922 166.932 113.422C167.432 114.078 167.484 114.969 167.073 115.682C166.891 115.995 166.641 116.24 166.328 116.422L156.437 122.13C155.573 122.63 154.49 122.448 153.87 121.693C151.885 119.297 149.521 117.297 146.839 115.75L133.818 108.234C133.609 108.115 133.62 107.87 133.687 107.75Z" fill="var(--color-light)" />
    <path d="M125.677 112.797C125.948 112.328 126.339 111.943 126.802 111.672C127.292 111.391 127.901 111.391 128.385 111.672L142.818 120C146.26 121.984 149.141 124.865 151.141 128.328C153.141 131.792 154.198 135.724 154.198 139.698V155.719C154.224 156.313 153.896 157.229 153.302 157.724C152.531 158.365 151.276 158.266 150.328 157.719L138.052 150.641C137.083 150.078 136.479 149.036 136.479 147.922C136.479 147.776 136.505 144.094 136.479 142.453C136.469 141.729 136.354 139.229 135.292 137.385C134.552 136.094 133.26 134.932 131.359 133.833L126.828 131.219C125.859 130.661 125.255 129.62 125.255 128.505V114.339C125.266 113.797 125.406 113.266 125.677 112.797Z" fill="var(--color-tertiary)" />
    <path d="M108.016 215.036C108.318 214.505 108.844 214.146 109.448 214.042C112.5 213.521 115.401 212.474 118.073 210.932L129.807 204.167C130.781 203.604 131.995 203.526 133.042 203.958C137.75 205.901 141.312 207.005 144.594 207.536C145.896 207.943 146.417 208.786 146.198 210.109C146.125 210.578 145.943 211.052 145.667 211.526C144.958 212.76 143.615 213.969 141.776 215.026L125.771 224.266C120.922 227.063 115.63 228.823 110.042 229.495C109.458 229.568 108.87 229.385 108.427 228.995C107.984 228.604 107.74 228.063 107.74 227.469V216.052C107.745 215.693 107.839 215.344 108.016 215.036Z" fill="var(--color-primary)" />
    <path d="M37.7865 121.365C38.349 120.391 39.599 120.052 40.5781 120.615L50.4688 126.323C51.3333 126.823 51.7083 127.865 51.3594 128.807C50.2552 131.776 49.7396 134.641 49.7396 137.823V171.505C49.7396 176.063 50.9531 180.568 53.2448 184.542C55.5365 188.51 58.8385 191.813 62.7865 194.089L91.974 210.932C94.6406 212.474 97.5417 213.516 100.594 214.036C101.583 214.208 102.302 215.052 102.302 216.047V227.464C102.302 227.828 102.208 228.167 102.031 228.479C101.615 229.193 100.823 229.589 100.005 229.49C94.4115 228.813 89.1198 227.052 84.276 224.26L55.0885 207.417C48.8073 203.792 43.5625 198.542 39.9167 192.229C36.2708 185.911 34.3438 178.75 34.3438 171.505V137.823C34.3438 132.229 35.4635 126.766 37.6719 121.594C37.7031 121.516 37.7448 121.438 37.7865 121.365Z" fill="var(--color-tertiary)" />
    <path d="M61.3437 183.323C61.5208 183.016 61.7812 182.755 62.099 182.573L74.8281 175.234C78.401 173.172 81.7656 175.182 82.8698 175.839L83.0677 175.953C86.3281 177.844 97.9948 184.5 108.286 190.38C116.057 194.818 122.776 198.646 124.573 199.688C124.74 199.781 124.802 199.917 124.828 200.021C124.859 200.156 124.839 200.307 124.771 200.427C124.724 200.505 124.656 200.573 124.573 200.62L116.411 205.328C109.391 209.38 100.672 209.38 93.651 205.328L66.8177 189.849C64.8906 188.734 63.1354 187.339 61.6042 185.708C60.9948 185.063 60.8958 184.104 61.3437 183.323Z" fill="var(--color-light)" />
    <path d="M43.0104 112.406C43.0521 112.333 43.099 112.266 43.1511 112.193C46.5313 107.693 50.7031 103.99 55.5469 101.198L72.4011 91.474C75.0417 89.9479 77.3333 89.2448 78.8542 89.4896C79.5729 89.6094 80.2604 90.0365 80.5573 90.5521C80.7188 90.8281 80.7448 91.0885 80.6458 91.3594C79.5313 94.3385 78.8438 96.3281 77.625 102.51C77.4219 103.547 77.0625 104.521 76.5521 105.396C75.5 107.219 74.0261 108.307 72.974 108.906L63.2448 114.521C60.5781 116.057 58.224 118.047 56.2448 120.427C55.599 121.198 54.5104 121.396 53.6458 120.901L43.7552 115.193C43.2813 114.922 42.9427 114.474 42.8021 113.948C42.6667 113.422 42.7396 112.875 43.0104 112.406Z" fill="var(--color-light)" />
    <path d="M58.7761 128.115C60.875 124.479 63.7448 121.594 66.6354 120.198C68.8229 119.141 71.5365 118.229 76.0365 120.823L86.5521 126.589C87.6875 127.245 87.125 128.286 87.0625 128.401C86.9479 128.599 86.7917 128.766 86.6198 128.87L76.8334 134.516C75.7396 135.151 74.8646 136.01 74.25 137.083C73.5938 138.219 73.2552 139.552 73.2396 141.042C73.2031 145.573 73.2188 152.375 73.2344 158.953C73.2448 161.839 73.25 164.661 73.2552 167.182C73.2552 168.109 73.0104 169.021 72.5469 169.823C72.0886 170.62 71.4219 171.292 70.6146 171.755L59.4688 178.187C58.9219 178.5 58.2709 178.552 57.6823 178.318C57.1094 178.094 56.6823 177.63 56.5052 177.052C55.8542 174.911 55.5261 172.698 55.5261 170.474V139.505C55.5261 135.786 56.6823 131.74 58.7761 128.115Z" fill="var(--color-primary)" />
</svg>
